<svg id="Layer_1" data-name="Layer 1" xmlns="http://www.w3.org/2000/svg" viewBox="0 0 500 500"><title>IOTA Mark Black</title><path d="M318.21,140.71a17.24,17.24,0,1,0-17.29-17.24A17.27,17.27,0,0,0,318.21,140.71Z"/><path d="M337.65,384.22A17.24,17.24,0,1,0,320.37,367,17.27,17.27,0,0,0,337.65,384.22Z"/><path d="M323.15,183.81a14.47,14.47,0,1,0-14.51-14.47A14.48,14.48,0,0,0,323.15,183.81Z"/><path d="M361.73,189.35a14.47,14.47,0,1,0-14.5-14.47A14.49,14.49,0,0,0,361.73,189.35Z"/><path d="M318.21,220.45a12.32,12.32,0,1,0-12.34-12.32A12.34,12.34,0,0,0,318.21,220.45Z"/><path d="M356.79,225.68a12.32,12.32,0,1,0-12.35-12.31A12.33,12.33,0,0,0,356.79,225.68Z"/><path d="M387.65,237.69a12.32,12.32,0,1,0-12.34-12.32A12.34,12.34,0,0,0,387.65,237.69Z"/><path d="M345.37,255.23a10.78,10.78,0,1,0-10.8-10.77A10.79,10.79,0,0,0,345.37,255.23Z"/><path d="M306.79,250A10.78,10.78,0,1,0,296,239.22,10.8,10.8,0,0,0,306.79,250Z"/><path d="M376.54,267.24a10.78,10.78,0,1,0-10.8-10.77A10.79,10.79,0,0,0,376.54,267.24Z"/><path d="M329.94,277.71a9.24,9.24,0,1,0-9.26-9.24A9.25,9.25,0,0,0,329.94,277.71Z"/><path d="M361.11,289.41a9.24,9.24,0,1,0-9.26-9.24A9.26,9.26,0,0,0,361.11,289.41Z"/><path d="M291.66,272.16a9.24,9.24,0,1,0-9.25-9.24A9.25,9.25,0,0,0,291.66,272.16Z"/><path d="M313,292.79a7.7,7.7,0,1,0-7.72-7.69A7.7,7.7,0,0,0,313,292.79Z"/><path d="M326.23,314a6.77,6.77,0,1,0-6.79-6.77A6.77,6.77,0,0,0,326.23,314Z"/><path d="M309.87,318.34a5.54,5.54,0,1,0-5.55-5.54A5.55,5.55,0,0,0,309.87,318.34Z"/><path d="M295.37,302.33a6.77,6.77,0,1,0-6.79-6.77A6.78,6.78,0,0,0,295.37,302.33Z"/><path d="M274.39,287.56a7.7,7.7,0,1,0-7.72-7.7A7.71,7.71,0,0,0,274.39,287.56Z"/><path d="M274.08,229.68a7.7,7.7,0,1,0-7.72-7.7A7.71,7.71,0,0,0,274.08,229.68Z"/><path d="M277.47,202.59a6.78,6.78,0,1,0-6.79-6.77A6.78,6.78,0,0,0,277.47,202.59Z"/><path d="M284.88,180.42a5.54,5.54,0,1,0-5.56-5.54A5.55,5.55,0,0,0,284.88,180.42Z"/><path d="M271.91,170a6.78,6.78,0,1,0-6.79-6.77A6.77,6.77,0,0,0,271.91,170Z"/><path d="M343.83,304.48a7.7,7.7,0,1,0-7.72-7.69A7.7,7.7,0,0,0,343.83,304.48Z"/><path d="M254.33,161a7.7,7.7,0,1,0-7.73-7.7A7.71,7.71,0,0,0,254.33,161Z"/><path d="M259.57,193.66a7.7,7.7,0,1,0-7.72-7.69A7.71,7.71,0,0,0,259.57,193.66Z"/><path d="M250.93,224.76a9.24,9.24,0,1,0-9.26-9.24A9.25,9.25,0,0,0,250.93,224.76Z"/><path d="M222.84,224.75A10.78,10.78,0,1,0,212,214,10.78,10.78,0,0,0,222.84,224.75Z"/><path d="M190.13,232.15a12.32,12.32,0,1,0-12.35-12.32A12.33,12.33,0,0,0,190.13,232.15Z"/><path d="M154.32,249.69a14.47,14.47,0,1,0-14.5-14.47A14.49,14.49,0,0,0,154.32,249.69Z"/><path d="M117.28,279.24A17.24,17.24,0,1,0,100,262,17.26,17.26,0,0,0,117.28,279.24Z"/><path d="M139.82,213.67a14.47,14.47,0,1,0-14.51-14.47A14.49,14.49,0,0,0,139.82,213.67Z"/><path d="M175.61,196.13a12.32,12.32,0,1,0-12.34-12.32A12.34,12.34,0,0,0,175.61,196.13Z"/><path d="M170.37,163.49A12.32,12.32,0,1,0,158,151.18,12.32,12.32,0,0,0,170.37,163.49Z"/><path d="M203.09,156.1a10.78,10.78,0,1,0-10.81-10.77A10.79,10.79,0,0,0,203.09,156.1Z"/><path d="M231.17,156.11a9.24,9.24,0,1,0-9.26-9.24A9.26,9.26,0,0,0,231.17,156.11Z"/><path d="M236.42,188.73a9.24,9.24,0,1,0-9.26-9.23A9.25,9.25,0,0,0,236.42,188.73Z"/><path d="M208.34,189.05a10.78,10.78,0,1,0-10.81-10.78A10.79,10.79,0,0,0,208.34,189.05Z"/><path d="M177.78,270.93a5.54,5.54,0,1,0-5.56-5.54A5.56,5.56,0,0,0,177.78,270.93Z"/><path d="M200,268.16a6.77,6.77,0,1,0-6.8-6.77A6.78,6.78,0,0,0,200,268.16Z"/><path d="M224.38,258.93a7.7,7.7,0,1,0-7.71-7.7A7.71,7.71,0,0,0,224.38,258.93Z"/><path d="M230.24,283.56a9.24,9.24,0,1,0-9.25-9.24A9.26,9.26,0,0,0,230.24,283.56Z"/><path d="M200.62,289.4a7.7,7.7,0,1,0-7.71-7.7A7.71,7.71,0,0,0,200.62,289.4Z"/><path d="M174.38,289.09a6.77,6.77,0,1,0-6.79-6.77A6.78,6.78,0,0,0,174.38,289.09Z"/><path d="M174.69,310.34a7.7,7.7,0,1,0-7.72-7.7A7.71,7.71,0,0,0,174.69,310.34Z"/><path d="M206.17,314.34a9.24,9.24,0,1,0-9.26-9.24A9.25,9.25,0,0,0,206.17,314.34Z"/><path d="M242.9,310.34a10.78,10.78,0,1,0-10.79-10.78A10.8,10.8,0,0,0,242.9,310.34Z"/><path d="M264.51,337.12a12.32,12.32,0,1,0-12.35-12.31A12.33,12.33,0,0,0,264.51,337.12Z"/><path d="M219.13,340.82A10.78,10.78,0,1,0,208.34,330,10.8,10.8,0,0,0,219.13,340.82Z"/><path d="M193.52,361.75A10.78,10.78,0,1,0,182.71,351,10.79,10.79,0,0,0,193.52,361.75Z"/><path d="M214.81,388.84a12.32,12.32,0,1,0-12.34-12.31A12.33,12.33,0,0,0,214.81,388.84Z"/><path d="M271.61,393.77A14.47,14.47,0,1,0,257.1,379.3,14.48,14.48,0,0,0,271.61,393.77Z"/><path d="M240.44,367.9a12.32,12.32,0,1,0-12.35-12.31A12.33,12.33,0,0,0,240.44,367.9Z"/><path d="M295.37,363a14.47,14.47,0,1,0-14.5-14.47A14.48,14.48,0,0,0,295.37,363Z"/><path d="M180.56,335.28a9.24,9.24,0,1,0-9.27-9.24A9.25,9.25,0,0,0,180.56,335.28Z"/></svg>